<mxfile host="app.diagrams.net" modified="2023-04-16T06:28:27.467Z" agent="Mozilla/5.0 (Windows NT 10.0; Win64; x64) AppleWebKit/537.36 (KHTML, like Gecko) Chrome/112.0.0.0 Safari/537.36" version="21.1.4" etag="K2sEa82J8odxPX1MS1uZ" type="github">
  <diagram name="Sayfa -1" id="xlEngm9by-6cEjG5ALyA">
    <mxGraphModel>
      <root>
        <mxCell id="0" />
        <mxCell id="1" parent="0" />
      </root>
    </mxGraphModel>
  </diagram>
</mxfile>
